<?xml version="1.0" encoding="iso-8859-1"?>
<!-- Uploaded to: SVG Repo, www.svgrepo.com, Generator: SVG Repo Mixer Tools -->
<svg fill="#85ffe2" height="800px" width="800px" version="1.1" id="Layer_1" xmlns="http://www.w3.org/2000/svg" xmlns:xlink="http://www.w3.org/1999/xlink" 
	 viewBox="0 0 512 512" xml:space="preserve">
<g> 
	<g>
		<path d="M256.001,0c-9.231,0-16.715,7.484-16.715,16.715v36.204c5.538-0.376,11.111-0.577,16.715-0.577s11.176,0.201,16.715,0.577
			V16.715C272.716,7.484,265.232,0,256.001,0z"/>
	</g>
</g>
<g>
	<g>
		<path d="M356.265,169.665c-30.678,9.472-65.048,14.595-100.267,14.595c-1.015,0-2.027-0.016-3.04-0.023
			c-1.755,25.926-2.895,54.339-3.315,84.08c2.089,0.019,4.188,0.032,6.299,0.032c45.688-0.001,90.097-4.72,126.491-13.343
			C378.273,224.398,369.293,195.478,356.265,169.665z"/>
	</g>
</g>
<g>
	<g>
		<path d="M267.508,76.321c-5.331,19.864-9.723,49.661-12.84,85.642c0.444,0.001,0.886,0.01,1.329,0.01
			c31.284,0,61.728-4.263,89.051-12.174C325.226,118.254,298.799,92.699,267.508,76.321z"/>
	</g>
</g>
<g>
	<g>
		<path d="M166.951,149.799c20.405,5.908,42.549,9.775,65.487,11.355c2.978-34.519,7.108-63.824,12.116-84.868
			C213.236,92.665,186.787,118.232,166.951,149.799z"/>
	</g>
</g>
<g>
	<g>
		<path d="M468.951,240.819c-15.67,14.402-40.478,24.353-62.404,30.856c0.534,7.424,0.812,14.917,0.812,22.466
			c0,30.128-4.35,59.417-12.465,86.819c27.629-8.884,52.788-20.445,74.268-34.363c4.139-16.816,6.351-34.381,6.351-52.456
			C475.513,275.756,473.229,257.897,468.951,240.819z"/>
	</g>
</g>
<g>
	<g>
		<path d="M104.642,294.141c0-7.539,0.279-15.019,0.81-22.432c-21.664-6.413-46.62-16.351-62.419-30.82
			c-4.267,17.056-6.546,34.892-6.546,53.251c0,18.076,2.212,35.642,6.352,52.46c21.462,13.906,46.598,25.458,74.199,34.339
			C108.866,353.302,104.642,324.029,104.642,294.141z"/>
	</g>
</g>
<g>
	<g>
		<path d="M96.877,143.081c-19.714,20.756-35.411,45.355-45.859,72.539c5.678,11.772,25.855,23.876,56.885,33.514
			c4.525-30.99,13.657-60.38,26.71-86.914C120.943,156.759,108.266,150.351,96.877,143.081z"/>
	</g>
</g>
<g>
	<g>
		<path d="M385.874,406.882c-15.621,38.826-39.191,72.696-68.807,98.121c64.065-18.583,116.142-65.633,141.576-126.493
			C436.701,390.033,412.162,399.567,385.874,406.882z"/>
	</g>
</g>
<g>
	<g>
		<path d="M113.606,127.224c9.686,5.766,20.333,10.882,31.733,15.299c13.605-22.667,30.286-42.721,49.528-59.223
			C164.583,92.095,136.981,107.253,113.606,127.224z"/>
	</g>
</g>
<g>
	<g>
		<path d="M317.134,83.3c19.243,16.502,35.922,36.555,49.528,59.222c11.399-4.417,22.046-9.534,31.732-15.3
			C375.019,107.252,347.417,92.095,317.134,83.3z"/>
	</g>
</g>
<g>
	<g>
		<path d="M415.122,143.08c-11.388,7.27-24.064,13.678-37.735,19.139c13.051,26.532,22.182,55.919,26.709,86.906
			c29.125-9.078,49.295-20.585,56.073-32.199c0.254-0.436,0.543-0.839,0.844-1.228C450.564,188.483,434.855,163.856,415.122,143.08z
			"/>
	</g>
</g>
<g>
	<g>
		<path d="M141.573,439.205c-5.847-10.379-11.02-21.186-15.513-32.341c-26.262-7.312-50.778-16.838-72.7-28.352
			c25.429,60.85,77.494,107.892,141.545,126.481C174.151,487.178,156.097,464.987,141.573,439.205z"/>
	</g>
</g>
<g>
	<g>
		<path d="M155.736,169.666c-13.03,25.817-22.011,54.741-26.171,85.355c27.244,6.464,60.392,11.122,97.801,12.719
			c0.432-29.72,1.588-58.216,3.365-84.371C204.434,181.533,179.021,176.856,155.736,169.666z"/>
	</g>
</g>
<g>
	<g>
		<path d="M227.173,294.14c0-1.373,0.002-2.744,0.006-4.113c-35.892-1.511-70.132-5.833-99.768-12.602
			c-0.316,5.533-0.483,11.106-0.483,16.715c0,33.138,5.56,65.031,15.814,94.112c27.689,6.912,57.283,11.296,87.728,12.875
			C228.338,368.326,227.173,331.964,227.173,294.14z"/>
	</g>
</g>
<g>
	<g>
		<path d="M232.123,423.531c-27.115-1.264-53.66-4.671-78.963-10.035c20.513,43.083,52.107,77.98,91.392,98.504
			C239.364,490.217,235.12,459.62,232.123,423.531z"/>
	</g>
</g>
<g>
	<g>
		<path d="M384.588,277.392c-37.487,8.568-82.526,13.243-128.645,13.243c-2.163,0-4.321-0.013-6.478-0.035
			c-0.002,1.179-0.004,2.358-0.004,3.54c0,37.883,1.221,74.647,3.42,107.637c1.04,0.007,2.077,0.025,3.118,0.025
			c39.349,0,77.793-4.707,113.138-13.518c10.326-29.155,15.936-61.081,15.936-94.142
			C385.072,288.521,384.905,282.935,384.588,277.392z"/>
	</g>
</g>
<g>
	<g>
		<path d="M255.998,424.089c-0.478,0-0.955-0.01-1.433-0.011c3.145,37.03,7.598,67.829,12.955,87.911
			c0.109-0.062,0.209-0.132,0.322-0.191c38.965-20.514,70.387-55.382,90.854-98.272
			C326.049,420.437,291.333,424.089,255.998,424.089z"/>
	</g>
</g>
<g>
	<g>
		<path d="M64.008,48.957h-5.085v-3.08c0-9.231-7.484-16.715-16.715-16.715s-16.715,7.484-16.715,16.715v3.08h-5.085
			c-9.231,0-16.715,7.484-16.715,16.715s7.484,16.715,16.715,16.715h5.085v3.08c0,9.231,7.484,16.715,16.715,16.715
			s16.715-7.484,16.715-16.715v-3.08h5.085c9.231,0,16.715-7.484,16.715-16.715S73.24,48.957,64.008,48.957z"/>
	</g>
</g>
<g>
	<g>
		<path d="M491.592,48.957h-5.085v-3.08c0-9.231-7.484-16.715-16.715-16.715s-16.715,7.484-16.715,16.715v3.08h-5.085
			c-9.231,0-16.715,7.484-16.715,16.715s7.484,16.715,16.715,16.715h5.085v3.08c0,9.231,7.484,16.715,16.715,16.715
			s16.715-7.484,16.715-16.715v-3.08h5.085c9.231,0,16.715-7.484,16.715-16.715S500.823,48.957,491.592,48.957z"/>
	</g>
</g>
</svg>